# xmcd
# Copyright (C) 1995-1998 Ti Kan
#
# Track frame offsets:
#       150
#       16628
#       33093
#       49296
#       66078
#       82590
#       102212
#       119325
#       135793
#       149809
#
# Disc length: 2217 seconds
#
# Revision: 0
# Processed by: cddbd v1.5.2PL0 Copyright (c) Steve Scherf et al.
# Submitted via: CD-Import v1.0
#
DISCID=7608a70a
DTITLE=Pornorama - Click Here
DYEAR=2009
DGENRE=
TTITLE0=It's My Fit
TTITLE1=Pull My Trigger
TTITLE2=Bomm Boom
TTITLE3=You're Not Ready
TTITLE4=Touchy Type
TTITLE5=Even So
TTITLE6=We're In This Show
TTITLE7=Click Here
TTITLE8=Long Hot Shuffle
TTITLE9=More Things
EXTD=
EXTT0=
EXTT1=
EXTT2=
EXTT3=
EXTT4=
EXTT5=
EXTT6=
EXTT7=
EXTT8=
EXTT9=
PLAYORDER=
